<?xml version="1.0" standalone="no"?>
<!DOCTYPE svg PUBLIC "-//W3C//DTD SVG 20010904//EN"
 "http://www.w3.org/TR/2001/REC-SVG-20010904/DTD/svg10.dtd">
<svg version="1.0" xmlns="http://www.w3.org/2000/svg"
 width="1900.000000pt" height="1900.000000pt" viewBox="0 0 1900.000000 1900.000000"
 preserveAspectRatio="xMidYMid meet">
<metadata>
Created by potrace 1.14, written by Peter Selinger 2001-2017
</metadata>
<g transform="translate(0.000000,1900.000000) scale(0.100000,-0.100000)"
fill="#000000" stroke="none">
<path d="M9139 18935 c-2 -1 -65 -6 -139 -9 -200 -9 -337 -20 -530 -41 -25 -3
-67 -8 -95 -11 -27 -3 -61 -7 -75 -9 -35 -5 -97 -14 -145 -20 -23 -3 -50 -7
-60 -9 -11 -2 -45 -7 -75 -11 -30 -4 -64 -9 -75 -11 -11 -3 -58 -11 -105 -19
-47 -9 -97 -17 -110 -20 -14 -3 -41 -8 -60 -11 -57 -10 -296 -63 -420 -94
-523 -127 -1100 -322 -1523 -514 -32 -14 -59 -26 -61 -26 -24 0 -588 -282
-771 -385 -27 -16 -66 -37 -85 -48 -186 -104 -578 -355 -761 -487 -154 -111
-289 -210 -311 -229 -13 -10 -84 -67 -158 -127 -131 -104 -313 -259 -395 -335
-22 -20 -76 -70 -120 -111 -162 -148 -440 -432 -610 -622 -90 -100 -81 -90
-145 -166 -30 -36 -57 -67 -60 -70 -8 -8 -172 -212 -200 -250 -14 -18 -30 -38
-35 -44 -6 -6 -53 -69 -106 -141 -298 -406 -486 -703 -733 -1155 -96 -175
-265 -527 -353 -735 -30 -71 -63 -148 -73 -170 -56 -127 -224 -602 -289 -820
-28 -92 -72 -246 -76 -265 -2 -8 -22 -89 -45 -180 -23 -91 -44 -176 -47 -190
-2 -14 -13 -65 -24 -115 -18 -82 -44 -212 -55 -275 -3 -14 -11 -61 -19 -105
-8 -44 -17 -96 -20 -115 -27 -188 -36 -252 -40 -295 -3 -27 -8 -61 -10 -75 -2
-14 -7 -61 -11 -105 -3 -44 -8 -82 -9 -85 -2 -3 -6 -48 -10 -100 -4 -52 -8
-115 -10 -140 -14 -161 -20 -381 -20 -690 0 -430 11 -659 51 -1020 9 -83 21
-180 39 -320 4 -25 32 -202 40 -250 2 -14 7 -43 11 -65 13 -88 83 -422 110
-528 2 -9 6 -25 8 -35 2 -9 9 -35 14 -57 6 -22 13 -51 16 -65 16 -82 182 -644
206 -695 5 -11 25 -65 44 -120 113 -325 252 -655 427 -1010 99 -201 160 -317
176 -337 6 -7 12 -17 13 -23 2 -14 87 -163 178 -315 231 -386 536 -819 787
-1120 44 -53 98 -118 120 -144 40 -49 107 -126 135 -156 8 -9 56 -61 105 -115
192 -212 512 -524 770 -750 148 -129 602 -487 701 -552 11 -7 53 -37 94 -66
77 -54 340 -228 397 -263 18 -10 98 -58 178 -107 80 -48 148 -87 150 -87 3 0
22 -11 43 -23 87 -55 416 -225 592 -307 238 -110 260 -120 379 -169 165 -69
352 -141 526 -201 83 -29 159 -56 170 -61 11 -5 61 -20 110 -35 50 -14 142
-42 205 -60 237 -71 704 -182 880 -210 19 -3 51 -9 70 -14 19 -4 58 -12 85
-16 28 -4 57 -9 65 -10 8 -2 33 -5 55 -9 22 -3 49 -7 60 -9 18 -3 65 -10 150
-22 17 -2 50 -6 75 -9 47 -5 78 -9 168 -20 29 -4 71 -8 95 -10 23 -2 78 -7
122 -10 44 -4 96 -8 115 -10 126 -13 356 -20 690 -20 392 1 563 7 820 30 41 4
91 8 110 10 96 9 167 16 190 20 14 2 50 7 80 10 30 4 66 8 80 10 14 2 45 6 70
10 25 3 56 8 70 10 14 3 39 7 55 9 48 7 268 45 295 51 14 3 41 8 60 11 209 34
769 178 1045 269 61 20 115 37 120 38 6 2 24 8 40 14 17 7 84 31 150 53 137
48 466 177 570 225 39 17 124 56 190 85 418 188 928 476 1360 769 154 104 474
338 529 386 6 6 34 28 61 50 53 42 283 232 301 250 6 5 44 39 84 75 142 126
196 177 385 365 192 192 270 274 380 399 33 38 69 78 80 90 19 20 154 180 185
219 8 11 20 24 25 31 49 55 301 388 387 511 242 347 427 648 613 995 46 86
211 418 245 495 5 11 27 60 50 108 22 49 40 91 40 94 0 2 9 24 20 48 68 148
173 427 260 685 92 275 136 425 209 715 11 44 26 100 32 125 6 25 13 54 14 65
2 11 10 50 19 88 9 37 18 82 21 100 4 17 11 52 16 77 13 54 12 48 43 235 50
300 84 567 101 791 2 34 7 84 10 112 26 269 27 1125 0 1387 -2 22 -7 81 -10
130 -3 50 -8 101 -10 115 -4 24 -8 65 -20 175 -9 85 -16 139 -20 165 -8 46
-22 136 -30 204 -3 19 -12 75 -21 123 -8 49 -18 102 -21 118 -36 213 -141 658
-209 890 -81 276 -237 736 -284 840 -5 11 -36 85 -69 165 -213 521 -512 1085
-813 1538 -37 56 -68 105 -68 108 0 3 -5 10 -10 17 -6 7 -69 94 -140 194 -150
211 -452 599 -500 643 -3 3 -30 34 -60 70 -30 35 -75 87 -100 114 -25 26 -76
83 -115 125 -80 87 -401 409 -490 491 -52 48 -87 79 -225 201 -14 12 -77 65
-140 118 -63 53 -117 98 -120 101 -23 24 -426 329 -510 386 -106 72 -297 200
-315 211 -11 7 -76 48 -145 91 -309 194 -799 456 -1090 582 -41 18 -93 40
-115 50 -91 41 -357 150 -366 150 -5 0 -17 4 -27 10 -41 23 -620 221 -686 235
-11 2 -84 22 -161 43 -77 22 -153 43 -170 47 -16 5 -32 9 -35 10 -14 4 -68 16
-85 19 -11 2 -38 9 -60 14 -63 17 -553 116 -615 125 -19 3 -64 10 -100 16 -36
6 -81 12 -100 15 -19 2 -71 9 -115 15 -44 6 -105 13 -135 16 -30 3 -62 8 -70
10 -8 2 -53 6 -100 10 -47 3 -98 8 -115 10 -16 2 -77 6 -135 10 -58 4 -121 9
-140 11 -41 6 -896 14 -901 9z"/>
</g>
</svg>
