<?xml version="1.0" standalone="no"?>
<!DOCTYPE svg PUBLIC "-//W3C//DTD SVG 20010904//EN"
 "http://www.w3.org/TR/2001/REC-SVG-20010904/DTD/svg10.dtd">
<svg version="1.0" xmlns="http://www.w3.org/2000/svg"
 width="260.000000pt" height="260.000000pt" viewBox="0 0 260.000000 260.000000"
 preserveAspectRatio="xMidYMid meet">
<metadata>
Created by potrace 1.14, written by Peter Selinger 2001-2017
</metadata>
<g transform="translate(0.000000,260.000000) scale(0.100000,-0.100000)"
fill="#000000" stroke="none">
<path d="M1156 2580 c-298 -38 -558 -164 -766 -372 -278 -277 -416 -677 -367
-1058 38 -302 160 -554 367 -760 184 -185 399 -301 663 -357 115 -25 380 -25
497 0 409 88 738 343 915 712 141 292 162 645 60 960 -121 369 -420 675 -793
809 -162 58 -412 87 -576 66z m174 -868 l0 -137 -232 -412 -233 -412 -158 -1
-158 0 35 63 c19 34 123 217 231 407 l195 345 -230 3 -230 2 0 140 0 140 390
0 390 0 0 -138z m890 -2 l0 -140 -154 0 -154 0 -150 -267 -150 -268 151 -5
152 -5 3 -137 3 -138 -311 0 -310 0 0 136 0 136 228 414 227 414 233 0 232 0
0 -140z"/>
</g>
</svg>
